<svg width="86" height="122" viewBox="0 0 86 122" fill="none" xmlns="http://www.w3.org/2000/svg">
<path fill-rule="evenodd" clip-rule="evenodd" d="M12.2062 0.419754C12.0903 0.691025 10.8401 3.782 9.42757 7.28862L6.85962 13.664L6.92556 19.3439L6.99149 25.0238L7.85146 26.0686L8.71144 27.1133L7.79175 27.9414L6.87206 28.7696L8.02373 33.9874L9.17517 39.205L7.86145 40.9071C7.13866 41.8434 6.24783 43.0006 5.88155 43.479C5.51527 43.9572 4.42665 45.366 3.46233 46.6094C2.49802 47.8527 1.66757 49.028 1.61696 49.2208C1.56101 49.4337 2.01032 50.0289 2.75974 50.7348C3.43902 51.3746 3.99466 51.9855 3.99466 52.0927C3.99466 52.1997 3.2954 53.9206 2.44075 55.9168C1.5861 57.913 0.886839 59.8404 0.886839 60.2001C0.886839 60.5596 1.08663 62.2842 1.33081 64.0326C1.95948 68.5338 1.92618 69.1445 0.886839 72.1864C0.398467 73.6155 -0.000665129 74.9771 8.3217e-07 75.2121C0.000666794 75.4973 0.647315 76.0936 1.94394 77.0051C3.01259 77.7564 4.09877 78.602 4.35783 78.8843C4.61689 79.1669 5.60318 81.1887 6.54951 83.3774C9.62758 90.497 9.97743 91.0108 10.9873 89.8994C11.2081 89.6562 11.4583 89.4573 11.5431 89.4573C11.6279 89.4573 13.3357 92.3044 15.338 95.784C17.3405 99.2639 19.1024 102.159 19.2536 102.218C19.4046 102.277 19.9753 102.064 20.5218 101.746L21.5154 101.166L21.8327 101.668C24.2494 105.493 26.0726 108.436 26.8267 109.731C27.3368 110.606 27.8452 111.379 27.9566 111.447C28.0681 111.516 29.1735 111.714 30.4131 111.887C33.001 112.249 32.3176 111.762 37.8173 117.165C39.5097 118.828 41.3833 120.596 41.9806 121.094L43.0668 122L44.7861 120.378C45.7316 119.485 48.0036 117.3 49.835 115.522C53.3784 112.08 53.1954 112.189 56.1445 111.783C57.0507 111.658 57.9222 111.449 58.0812 111.318C58.2401 111.186 58.8874 110.218 59.5196 109.167C60.1516 108.115 61.5182 105.895 62.5564 104.234L64.4437 101.213L65.6243 101.79C66.2734 102.107 66.8432 102.322 66.8905 102.268C66.9915 102.152 70.8694 95.4031 72.6633 92.2208C73.3485 91.0049 73.9998 89.874 74.1106 89.7077C74.2733 89.4635 74.4747 89.5159 75.1644 89.9826C75.8383 90.4387 76.0714 90.5019 76.2779 90.2848C76.4215 90.1336 77.6205 87.5433 78.9422 84.5286L81.3452 79.0473L83.6128 77.3434C84.8599 76.4062 85.9312 75.5205 85.9936 75.3751C86.056 75.2294 85.6557 73.7868 85.1043 72.1693L84.1018 69.2281L84.5815 65.2545C85.2981 59.3235 85.4713 60.3818 82.7157 53.8627L81.9215 51.9835L83.2487 50.7531C83.9786 50.0766 84.576 49.4127 84.576 49.2778C84.576 49.143 84.3389 48.7514 84.049 48.4079C83.7593 48.0641 82.0611 45.9043 80.2752 43.6084C78.1159 40.832 77.0284 39.2521 77.0284 38.8915C77.0284 38.5933 77.4779 36.3656 78.0274 33.941C78.5768 31.5166 79.0263 29.3115 79.0263 29.0407C79.0263 28.7442 78.6953 28.2691 78.1939 27.8457C77.287 27.0801 77.2764 27.1639 78.4713 25.6605L79.1373 24.8228L79.1344 19.1688L79.1318 13.5148L76.4455 6.88227L73.7592 0.249741L72.7854 0.175236C72.2499 0.134335 70.6949 0.168604 69.3299 0.251289L66.8483 0.402069L63.6248 5.30019L60.4014 10.1985L55.3896 14.3439C51.8438 17.2766 50.2159 18.4892 49.825 18.4892C49.5211 18.4892 48.1175 18.2405 46.7057 17.9365C43.5121 17.2489 42.8169 17.2487 39.569 17.9354C38.1338 18.2387 36.6601 18.4861 36.2938 18.485C35.7557 18.4834 34.6682 17.6845 30.6331 14.3257C27.886 12.0393 25.376 9.77737 25.0555 9.29916C23.2811 6.65345 19.7862 1.28862 19.5708 0.880273C19.3411 0.444737 19.0853 0.393667 16.4857 0.265217C14.9266 0.188279 13.3734 0.0803902 13.034 0.0257824C12.5532 -0.0515972 12.3702 0.0355096 12.2062 0.419754ZM18.3583 1.36246C18.6036 1.43741 24.3023 9.75283 24.5516 10.3995C24.6113 10.5547 23.2716 13.6074 21.5745 17.1833C19.8774 20.7591 18.4094 23.9334 18.3126 24.2374C18.1457 24.7605 18.1264 24.7664 17.9528 24.3479C17.852 24.1047 16.8124 18.9811 15.6428 12.9621C14.4731 6.94307 13.4597 1.7907 13.3909 1.51235L13.2657 1.00629L15.6783 1.14358C17.0051 1.21897 18.2112 1.31758 18.3583 1.36246ZM72.6437 1.63152C72.4535 2.73053 68.1374 24.3426 68.063 24.569C68.0231 24.6906 67.8408 24.4419 67.6581 24.0163C67.4752 23.5907 66.0125 20.4509 64.4076 17.0391C62.8026 13.6273 61.4893 10.7145 61.4893 10.5664C61.4893 10.4183 62.8308 8.26449 64.4704 5.78039L67.4517 1.26385L69.1876 1.18824C70.1426 1.14646 71.3344 1.09251 71.8364 1.06797C72.7177 1.02508 72.7454 1.04454 72.6437 1.63152ZM75.8332 7.87715L78.018 13.2937L78.092 18.879L78.1661 24.4644L77.3199 25.5575C76.7141 26.3397 76.3156 26.6532 75.9185 26.66C75.3362 26.67 68.9674 25.9871 68.8691 25.9041C68.818 25.8608 73.1064 4.05416 73.4052 2.83709C73.4737 2.55786 73.5565 2.35889 73.5892 2.39492C73.6218 2.43118 74.6316 4.89804 75.8332 7.87715ZM14.8993 14.1781C16.0201 19.7715 16.9811 24.7068 17.0348 25.1456C17.1301 25.9229 17.111 25.9464 16.2796 26.0726C14.3293 26.3686 9.99675 26.7197 9.69884 26.6059C9.52214 26.5384 9.04376 26.0027 8.63574 25.4155L7.89409 24.3479L7.89786 19.0419L7.90163 13.7359L9.64601 9.31818C10.6052 6.88846 11.6401 4.35152 11.9454 3.68053L12.5008 2.46058L12.681 3.23438C12.7805 3.65997 13.7785 8.58462 14.8993 14.1781ZM30.038 15.0794C32.502 17.0953 34.5467 18.823 34.582 18.919C34.6469 19.0956 19.0822 25.4091 18.9375 25.2648C18.8944 25.2221 20.122 22.5109 21.6655 19.2402C23.209 15.9697 24.6639 12.871 24.899 12.3541C25.1338 11.8372 25.3785 11.4145 25.4422 11.4145C25.5059 11.4145 27.5741 13.0638 30.038 15.0794ZM60.8234 11.6117C60.8234 11.72 62.2254 14.769 63.939 18.3871C65.6525 22.0051 67.0259 25.0432 66.9913 25.1383C66.9063 25.3711 51.6109 19.219 51.6109 18.9521C51.6109 18.7045 60.3248 11.4145 60.6209 11.4145C60.7321 11.4145 60.8234 11.5032 60.8234 11.6117ZM42.6204 27.2457C42.6204 34.3396 42.5623 36.2 42.3429 36.1121C42.1904 36.051 41.1586 35.6299 40.0503 35.1764L38.0353 34.352L37.7773 32.003C37.6353 30.711 37.225 27.4172 36.8656 24.6835C36.5062 21.9496 36.2609 19.6643 36.3206 19.6048C36.4079 19.5177 41.8335 18.3508 42.4539 18.2856C42.5454 18.2761 42.6204 22.308 42.6204 27.2457ZM49.6508 19.6691C49.724 19.7421 49.6681 20.7018 49.5262 21.8021C49.3846 22.9025 49.0216 25.9649 48.7197 28.6076C48.4181 31.2502 48.1237 33.6173 48.0658 33.868C47.9941 34.1791 47.5188 34.5063 46.5669 34.9001C45.8004 35.2169 44.7988 35.6352 44.3408 35.8291L43.5084 36.1819V27.2556V18.3294L46.513 18.9329C48.1657 19.265 49.5777 19.5962 49.6508 19.6691ZM35.2948 20.2092C35.2948 20.3039 35.6489 23.1041 36.0818 26.4319C36.5147 29.7596 36.8392 32.6302 36.8032 32.811C36.7642 33.0071 34.7903 31.1319 31.9089 28.161L27.08 23.1824L28.4681 22.6016C31.7142 21.2437 34.7594 20.0556 35.0174 20.0465C35.1701 20.0412 35.2948 20.1144 35.2948 20.2092ZM55.0983 21.6118L59.0297 23.1914L54.0994 28.226C51.3876 30.9948 49.1579 33.2448 49.1442 33.2258C49.0045 33.0315 50.778 20.0361 50.9443 20.0346C51.0668 20.0333 52.9359 20.7432 55.0983 21.6118ZM25.3054 24.116C25.3054 24.1711 24.3158 27.8271 23.1064 32.2409C21.8968 36.6548 20.7942 40.6889 20.6559 41.2056C20.4834 41.8503 20.2854 42.1441 20.0246 42.1419C19.8157 42.1399 17.6018 41.4435 15.1049 40.5943C12.6078 39.7449 10.5415 39.05 10.5129 39.05C10.4845 39.05 12.1844 36.2891 14.2906 32.915L18.1201 26.7799L21.4353 25.416C24.5611 24.1299 25.3054 23.8799 25.3054 24.116ZM64.3752 25.3536C66.0234 25.9908 67.5878 26.7217 67.8517 26.9777C68.5831 27.6874 75.4945 38.8995 75.3065 39.071C74.9444 39.4011 65.8602 42.1647 65.6942 41.9953C65.5008 41.7981 60.8234 24.7828 60.8234 24.277C60.8234 24.1076 60.9483 24.0198 61.1008 24.082C61.2536 24.1441 62.7269 24.7163 64.3752 25.3536ZM31.7277 29.4364C34.8973 32.6264 36.8485 34.7522 36.7771 34.9374C36.684 35.1793 31.1708 44.0695 30.9634 44.3118C30.9324 44.3485 28.7418 43.9623 26.0955 43.454C22.9799 42.8553 21.3143 42.4424 21.3689 42.2821C21.4155 42.1461 22.5441 38.0302 23.8769 33.136C25.2097 28.2419 26.3592 24.2374 26.4311 24.2374C26.5033 24.2374 28.8867 26.5769 31.7277 29.4364ZM61.6014 30.9805C64.428 41.5364 64.6462 42.3913 64.5408 42.4961C64.3268 42.7092 55.1642 44.3346 55.0271 44.1838C54.9474 44.0961 53.5693 41.9385 51.9645 39.389L49.0467 34.7535L54.3183 29.5001C57.2174 26.6107 59.6559 24.3192 59.737 24.4078C59.8182 24.4965 60.6571 27.4542 61.6014 30.9805ZM16.3831 27.7305C14.5055 30.8113 10.0769 37.7074 9.97122 37.7147C9.90085 37.7196 9.46775 35.9575 9.00868 33.7993C8.54961 31.6411 8.12628 29.6681 8.06768 29.415C7.98954 29.0776 8.1769 28.7911 8.77049 28.3401C9.49683 27.7885 9.92571 27.685 12.9474 27.3337C14.7997 27.1181 16.4455 26.9304 16.6051 26.9163C16.7989 26.899 16.7254 27.169 16.3831 27.7305ZM72.9803 27.308C76.1491 27.677 76.4226 27.7464 77.198 28.3772C77.6542 28.7482 78.0085 29.1872 77.9854 29.3528C77.8751 30.1437 76.3227 37.2177 76.1858 37.5537C76.0697 37.8381 75.1711 36.5617 72.6997 32.6034C70.8683 29.6701 69.3366 27.1847 69.2959 27.0803C69.2063 26.8506 68.8775 26.8303 72.9803 27.308ZM40.1999 36.2535L42.5094 37.2155L42.5674 45.9813C42.5993 50.8024 42.5993 54.7466 42.5674 54.7461C42.1829 54.7397 34.9763 52.7473 34.8453 52.6111C34.7472 52.5092 34.0091 50.7503 33.2051 48.7024L31.7435 44.9791L34.4391 40.6328C35.9217 38.2424 37.2725 36.0628 37.4408 35.789C37.6093 35.5153 37.7791 35.2916 37.8186 35.2916C37.8579 35.2916 38.9297 35.7245 40.1999 36.2535ZM51.2224 40.0305C52.8403 42.6294 54.1637 44.8926 54.1637 45.06C54.1637 45.3268 51.3434 52.5346 51.1676 52.717C51.1112 52.7754 43.7406 54.7413 43.5614 54.7457C43.5295 54.7464 43.5295 50.802 43.5614 45.9802L43.6194 37.2133L45.8392 36.2706C47.0602 35.7521 48.1091 35.3228 48.1701 35.3166C48.2311 35.3104 49.6046 37.4317 51.2224 40.0305ZM15.906 41.8669L20.3806 43.3612L22.991 45.6826L25.6013 48.004L24.3991 48.1592C22.6378 48.3867 15.7509 49.0068 15.0339 49.0026C14.6081 48.9999 14.3539 48.8456 14.2085 48.5014C14.0929 48.2277 13.246 46.2813 12.3263 44.1759C11.4068 42.0705 10.6543 40.2981 10.6543 40.2368C10.6543 40.1051 10.3137 39.9994 15.906 41.8669ZM74.6625 41.9794C74.2252 42.9827 73.3619 44.9724 72.7441 46.4011C71.4343 49.4297 72.0901 49.173 66.928 48.6785C61.1481 48.1244 60.5838 48.0553 60.6489 47.9071C60.6837 47.8275 61.7855 46.7895 63.097 45.6003L65.4815 43.4386L70.3115 41.8143C72.9681 40.9206 75.2126 40.182 75.2996 40.1727C75.3866 40.1632 75.0998 40.9761 74.6625 41.9794ZM10.6001 42.753C12.4066 46.8251 13.3274 49.1169 13.2695 49.3955C13.2085 49.6884 2.84432 58.0724 2.70047 57.9452C2.66007 57.9096 3.67611 55.3599 4.95831 52.2791C6.24028 49.198 7.81284 45.3587 8.4526 43.747C9.09259 42.1351 9.66643 40.8667 9.72792 40.9279C9.78963 40.9892 10.1821 41.8105 10.6001 42.753ZM79.6501 48.8883C81.3621 53.0226 82.9308 56.7987 83.1364 57.2793C83.4083 57.9158 83.4285 58.0907 83.2105 57.9218C82.9357 57.7089 72.8204 49.6899 72.6055 49.5144C72.5538 49.4722 73.3499 47.5003 74.3748 45.1323C75.413 42.734 76.3045 40.9474 76.388 41.0991C76.4701 41.2489 77.9381 44.754 79.6501 48.8883ZM7.17196 44.1903C6.86207 44.9503 6.15237 46.7411 5.59496 48.1698C5.03755 49.5984 4.52432 50.7638 4.45462 50.7591C4.38469 50.7547 3.94316 50.4231 3.47299 50.0222L2.61834 49.2935L5.11392 46.0509C6.48646 44.2676 7.63791 42.8085 7.67254 42.8085C7.70717 42.8085 7.48186 43.4304 7.17196 44.1903ZM80.9296 46.1464L83.2889 49.2635L82.5539 50.0185C82.1499 50.4337 81.7326 50.7447 81.6269 50.7096C81.4828 50.6618 78.3648 43.3824 78.361 43.0848C78.3577 42.8173 78.8911 43.4532 80.9296 46.1464ZM26.4986 50.1595C26.8205 52.9399 27.7699 64.5254 27.7064 64.8968C27.6458 65.2503 26.9441 64.9792 22.5372 62.8993C19.7329 61.5757 17.3281 60.369 17.1933 60.2175C16.9873 59.9861 15.0001 51.7973 14.8196 50.4359C14.7641 50.0169 15.0221 49.9692 19.7557 49.5261C22.5028 49.2688 25.1136 49.045 25.5574 49.0287L26.3643 48.9988L26.4986 50.1595ZM29.5818 49.4388C30.7985 49.6822 30.9317 49.7777 32.2989 51.3919C33.0896 52.3253 33.7374 53.2039 33.7387 53.3445C33.7398 53.4849 32.7302 55.7731 31.4946 58.4294C30.2593 61.0855 29.14 63.5075 29.0075 63.8115L28.7669 64.3642L28.6909 63.7009C28.6494 63.3362 28.3418 59.8735 28.0075 56.0063C27.4021 49.0015 27.4014 48.9754 27.8509 49.0789C28.0991 49.1361 28.8781 49.2982 29.5818 49.4388ZM58.6088 49.2752C58.6192 49.8073 57.4667 62.8241 57.3413 63.5904C57.2705 64.0226 57.1644 64.2178 57.1006 64.0326C57.0378 63.8502 55.9019 61.3838 54.5762 58.5517C53.2505 55.7196 52.1659 53.3668 52.1659 53.3235C52.1659 53.2801 52.8158 52.4634 53.6103 51.5086C55.0508 49.7777 55.0597 49.7715 56.6627 49.407C58.7007 48.9433 58.6026 48.95 58.6088 49.2752ZM66.5548 49.5821L71.2874 49.9833L71.1438 50.7622C70.789 52.689 68.9947 60.1782 68.8571 60.3073C68.6391 60.5116 58.3267 65.3796 58.2636 65.308C58.2179 65.2561 59.6169 49.2471 59.6866 49.0234C59.7014 48.9761 60.1878 48.992 60.7679 49.059C61.3479 49.126 63.9518 49.3614 66.5548 49.5821ZM14.9522 55.43C15.5538 58.1524 15.9467 60.3964 15.8401 60.501C15.2894 61.0413 3.00171 68.2144 2.87296 68.0707C2.74753 67.9307 2.00721 61.9787 1.91309 60.3537C1.892 59.9867 3.20483 58.8355 7.76844 55.2195C11.0039 52.656 13.701 50.5557 13.7621 50.5524C13.8231 50.5491 14.3588 52.744 14.9522 55.43ZM72.7028 50.7726C72.78 50.8971 75.3582 53.0038 78.432 55.4543C81.5059 57.9048 84.0488 60.0177 84.0827 60.1499C84.16 60.4517 83.2962 68.0337 83.1701 68.1593C83.0911 68.238 70.5457 60.9031 70.102 60.5187C70.0163 60.4444 70.4385 58.245 71.0403 55.6309C71.6421 53.0168 72.1367 50.8035 72.1396 50.7122C72.1471 50.4684 72.5401 50.5104 72.7028 50.7726ZM38.9576 54.8213L42.5094 55.7419L42.5709 58.8596L42.6322 61.9776L38.3077 64.8782L33.9831 67.7788L32.4745 67.2272C31.6449 66.9237 30.5434 66.5211 30.0266 66.3323L29.0872 65.9889L29.4018 65.2393C29.5747 64.8271 30.8389 62.0987 32.211 59.1762C33.9638 55.443 34.81 53.8684 35.0558 53.8817C35.2484 53.8921 37.0041 54.315 38.9576 54.8213ZM54.1198 59.8707C55.622 63.1683 56.7708 65.9421 56.6726 66.0345C56.4196 66.2733 52.6491 67.5697 52.2036 67.5712C51.9998 67.5719 49.96 66.3206 47.6706 64.7904L43.5084 62.0088V58.8201C43.5084 57.0662 43.5834 55.6281 43.6749 55.6238C43.7663 55.6196 45.3398 55.225 47.1712 54.747C49.0025 54.269 50.7007 53.8771 50.9449 53.8764C51.3112 53.8751 51.8666 54.9237 54.1198 59.8707ZM22.2493 63.9198L27.2958 66.3237L26.3561 66.8854C22.8065 69.0074 14.5235 73.7041 14.4525 73.6351C14.3259 73.5122 16.9449 61.4037 17.0848 61.4645C17.1498 61.4928 19.4738 62.5977 22.2493 63.9198ZM70.3812 67.59C71.1027 70.9067 71.667 73.6466 71.635 73.6783C71.5755 73.7375 61.6128 68.0601 59.7518 66.9064L58.7187 66.2662L59.9376 65.7217C60.6078 65.4223 62.9029 64.3297 65.0378 63.2935C67.1724 62.2573 68.9528 61.4432 68.9943 61.4846C69.0356 61.5257 69.6598 64.2731 70.3812 67.59ZM11.3005 68.055C5.62183 76.8305 5.08018 77.6292 4.80669 77.6292C4.66528 77.6292 3.77889 77.0821 2.837 76.4133C1.29174 75.3163 1.13569 75.139 1.24268 74.6002C1.4589 73.5113 2.85653 69.4586 3.03878 69.3923C3.13712 69.3565 5.81495 67.7525 8.98937 65.8282C12.1638 63.9037 14.797 62.3585 14.841 62.3946C14.8849 62.4306 13.2917 64.9777 11.3005 68.055ZM77.1918 65.9246C80.3374 67.8164 83.0292 69.5177 83.1737 69.7049C83.318 69.8924 83.6565 70.7571 83.926 71.6266C84.1953 72.4961 84.5427 73.6166 84.6979 74.1164L84.9802 75.0251L83.0973 76.4139C81.5095 77.5853 81.1694 77.7546 80.9267 77.4951C80.6959 77.2477 71.9756 63.7752 71.3902 62.7613C71.3023 62.6094 71.285 62.485 71.3515 62.485C71.4181 62.485 74.0462 64.0328 77.1918 65.9246ZM15.0081 66.0471C13.5896 72.6297 13.2318 74.112 13.0002 74.3667C12.7203 74.6747 6.59568 77.53 6.47425 77.409C6.43163 77.3664 6.78992 76.752 7.27075 76.0434C8.09987 74.8208 13.3738 66.6476 14.763 64.4314C15.1211 63.8603 15.4448 63.4239 15.4823 63.4613C15.52 63.4986 15.3065 64.6622 15.0081 66.0471ZM42.6009 68.2736C42.6182 70.773 42.5778 71.0909 42.2271 71.2019C41.6119 71.3962 37.6406 71.9584 37.4985 71.8711C37.4286 71.828 36.7817 71.0261 36.0611 70.089C34.8609 68.5283 34.7847 68.3647 35.157 68.1434C35.3805 68.0103 37.0763 66.8792 38.9254 65.6297L42.2874 63.358L42.4344 64.4137C42.5154 64.9945 42.5902 66.7313 42.6009 68.2736ZM47.4862 65.8996L51.2355 68.4302L49.9025 70.2094C48.8196 71.6551 48.4802 71.9695 48.0924 71.8848C47.83 71.8276 46.9658 71.6757 46.1722 71.5472C45.3786 71.4188 44.4545 71.2594 44.1188 71.193L43.5084 71.0721V67.2208C43.5084 65.1024 43.5599 63.3693 43.6227 63.3693C43.6855 63.3693 45.4241 64.5079 47.4862 65.8996ZM75.1793 70.6273C77.5197 74.2343 79.4097 77.2107 79.379 77.2412C79.306 77.314 73.1903 74.6517 72.9898 74.46C72.8637 74.3393 70.5908 64.3067 70.5908 63.8707C70.5908 63.5877 71.0565 64.2736 75.1793 70.6273ZM58.3098 71.3816L59.1014 74.867L57.5943 78.5304C56.2336 81.838 56.0424 82.1812 55.6251 82.0638C55.3707 81.9924 53.7142 81.5723 51.9439 81.1301C50.1735 80.688 48.7024 80.3103 48.6749 80.2911C48.6474 80.2719 49.0794 79.1881 49.6348 77.8831L50.6448 75.5097L49.9606 74.0539L49.2767 72.598L50.5547 70.9538C51.2577 70.0494 51.945 69.1653 52.0817 68.9891C52.2187 68.8129 53.4174 68.2822 54.7456 67.8102C57.6045 66.7939 57.1688 66.3573 58.3098 71.3816ZM31.4835 67.9203L33.6992 68.7129L35.163 70.5526C35.9681 71.5642 36.6268 72.5043 36.6268 72.6414C36.6268 72.7784 36.377 73.3816 36.0718 73.9814C35.7666 74.5812 35.5168 75.2694 35.5168 75.5106C35.5168 75.7518 35.9164 76.8665 36.4048 77.9879C36.8932 79.1094 37.2927 80.0957 37.2927 80.1797C37.2927 80.3218 30.5496 82.1615 30.0289 82.1615C29.8992 82.1615 29.7283 81.9035 29.6488 81.588C29.5693 81.2727 28.94 79.6736 28.2503 78.0345L26.9965 75.0545L27.2556 73.5496C27.8019 70.3775 28.6694 67.1277 28.9702 67.1277C29.134 67.1277 30.2648 67.4844 31.4835 67.9203ZM26.7963 71.0409L25.9097 74.7333L26.303 75.8858C26.5195 76.5196 26.6467 77.2709 26.5861 77.555C26.2993 78.8958 24.2772 84.7097 24.0827 84.7524C23.817 84.811 14.3879 75.0532 14.5521 74.8896C14.7364 74.7061 27.4001 67.3665 27.5486 67.3572C27.6225 67.3526 27.284 69.0103 26.7963 71.0409ZM59.2353 67.7521C59.5594 67.9738 62.4514 69.6768 65.6625 71.5364C71.4523 74.8898 71.4972 74.9214 71.1011 75.3731C70.0092 76.6189 62.1111 84.9319 61.977 84.9768C61.892 85.0051 61.24 83.2143 60.5283 80.9973C59.251 77.0177 59.239 76.9554 59.5849 76.144C60.0781 74.9873 60.0266 74.1016 59.2939 71.1497C58.2099 66.7826 58.2146 67.0537 59.2353 67.7521ZM12.8721 76.1369C12.8697 76.6167 11.5906 86.6524 11.4088 87.6189C11.2576 88.4217 10.5282 89.2028 10.2232 88.8882C10.1142 88.7757 9.36475 87.1911 8.55827 85.3672C7.75157 83.5433 6.77594 81.3813 6.39012 80.5626C6.00431 79.7439 5.7508 79.0121 5.82694 78.9363C5.99232 78.7716 12.4681 75.7872 12.7077 75.7653C12.7991 75.7569 12.8733 75.9242 12.8721 76.1369ZM76.7991 77.3354L80.2976 78.9208L78.9808 81.9229C78.2567 83.574 77.2588 85.8494 76.7631 86.9791C76.2677 88.1089 75.756 88.9981 75.6264 88.955C74.8647 88.702 74.605 87.6948 73.9321 82.3826C73.5548 79.4035 73.19 76.6923 73.1217 76.358C73.0533 76.0237 73.0657 75.75 73.149 75.75C73.2324 75.75 74.8752 76.4635 76.7991 77.3354ZM73.0231 82.8066L73.7075 88.4261L70.2343 94.5241C68.3239 97.8779 66.6765 100.714 66.5731 100.826C66.2993 101.123 64.8207 100.267 64.6942 99.7377C64.6362 99.4945 64.04 96.3763 63.3696 92.8087L62.1506 86.3216L63.1052 85.2644C63.6302 84.6827 65.8538 82.3624 68.0466 80.1081C71.8479 76.2002 72.0408 76.0366 72.1862 76.5981C72.2699 76.922 72.6466 79.7158 73.0231 82.8066ZM23.6645 86.298C23.7364 86.5668 23.4321 88.7555 22.9883 91.1618C21.3327 100.139 21.3889 99.9106 20.7087 100.455C20.3678 100.728 19.9389 100.948 19.7557 100.944C19.5562 100.939 18.2664 98.8923 16.5369 95.8355C14.9497 93.0304 13.3519 90.207 12.9862 89.5612L12.3214 88.3872L13.0704 82.4555C13.4824 79.193 13.8729 76.4323 13.9383 76.3202C14.1006 76.0423 23.5004 85.6856 23.6645 86.298ZM28.1735 80.5241C29.0987 83.0708 29.1223 83.1066 30.4111 83.9302C31.6047 84.6929 31.965 85.1554 31.965 85.9248C31.965 86.3497 31.8754 86.3875 31.1326 86.277C30.6748 86.2086 29.1351 86.036 27.7113 85.8932C26.0271 85.7243 25.1496 85.5485 25.2002 85.3898C25.243 85.2558 25.7372 83.6788 26.2986 81.8851C26.86 80.0915 27.3561 78.6241 27.4012 78.6241C27.4465 78.6241 27.7939 79.4791 28.1735 80.5241ZM60.8107 85.5624C60.6593 85.7105 54.1447 86.4167 54.0252 86.298C53.7686 86.0424 54.2714 84.9843 54.863 84.5344C56.7279 83.1159 57.0094 82.7871 57.5073 81.4441C57.7892 80.6835 58.1602 79.7203 58.3313 79.3033L58.6423 78.5456L59.7758 82.0058C60.3991 83.9089 60.8649 85.5094 60.8107 85.5624ZM40.468 82.402L42.6442 83.5225L42.5769 84.4442L42.5094 85.3659L41.0665 85.6276C40.2729 85.7716 38.7496 85.9977 37.6812 86.1302L35.739 86.3711L33.408 84.7731C32.126 83.8941 31.0771 83.1205 31.0771 83.0538C31.0771 82.8904 37.0366 81.3194 37.7367 81.2984C38.0419 81.2891 39.2711 81.7859 40.468 82.402ZM51.6415 82.1002C53.3972 82.5528 54.8033 83.0142 54.766 83.1254C54.7289 83.2364 53.6856 84.0215 52.4476 84.8695L50.1964 86.4118L46.8524 85.9002L43.5084 85.3886V84.3776V83.3664L45.5617 82.3348C46.691 81.7673 47.8027 81.2973 48.0322 81.2902C48.2616 81.2829 49.8856 81.6475 51.6415 82.1002ZM34.3598 86.6639C35.0211 87.129 35.5541 87.3267 36.1053 87.3112C36.5615 87.2984 37.4779 87.5617 38.2613 87.9307C39.5741 88.5493 39.743 88.5725 42.9161 88.5727C46.0958 88.5729 46.2612 88.5499 47.739 87.9042C48.6902 87.4883 49.4614 87.2833 49.778 87.3625C50.1393 87.4529 50.6874 87.2318 51.6704 86.5991C53.104 85.6761 53.2012 85.7139 52.8292 87.0486C52.6507 87.6877 52.2211 88.1332 50.6586 89.2999C48.8041 90.6843 48.591 90.7818 46.2364 91.3219C43.1894 92.0207 42.9592 92.0212 39.9133 91.3365C37.568 90.8092 37.3635 90.7161 35.48 89.3193C33.3946 87.773 33.2197 87.5677 32.9986 86.4063C32.8434 85.5912 32.8323 85.589 34.3598 86.6639ZM45.502 86.6283C47.0642 86.8949 47.3743 87.0791 46.6974 87.3377C45.9751 87.6139 39.7876 87.5117 39.2498 87.215C38.7703 86.9504 38.8327 86.9141 40.1786 86.6738C42.1352 86.3243 43.6473 86.3115 45.502 86.6283ZM32.3573 87.9519C32.7349 88.7392 36.6479 91.5971 37.754 91.8938C38.2328 92.0223 38.6246 92.2279 38.6246 92.351C38.6246 92.474 39.48 94.7695 40.5253 97.4519L42.4262 102.329L40.3588 104.253C38.5299 105.955 34.505 109.558 33.4774 110.413C33.1329 110.7 32.7902 109.78 29.2042 98.9433C27.0598 92.4633 25.3054 87.0525 25.3054 86.9188C25.3054 86.7466 26.2893 86.7748 28.6885 87.0165C31.9999 87.3497 32.0778 87.3696 32.3573 87.9519ZM60.8234 86.8248C60.8234 87.0711 53.0585 110.506 52.9293 110.65C52.7741 110.823 43.7304 102.527 43.7304 102.211C43.7304 102.093 44.599 99.7613 45.6605 97.0298C46.8533 93.9608 47.7226 92.0243 47.9359 91.9613C49.5486 91.4846 53.4485 88.6976 53.6669 87.8659C53.7244 87.6468 53.7848 87.4576 53.8012 87.4454C53.8174 87.4332 55.3292 87.246 57.1606 87.0289C58.992 86.812 60.5652 86.623 60.6569 86.6088C60.7486 86.5947 60.8234 86.6919 60.8234 86.8248ZM28.4095 99.8436C32.112 111.064 32.1355 111.148 31.553 111.037C31.2303 110.976 30.446 110.862 29.8102 110.784L28.6541 110.642L25.6759 105.853C24.0379 103.219 22.5978 100.865 22.4758 100.622C22.266 100.204 22.3974 99.3747 24.3089 89.0478C24.3844 88.6401 24.4985 88.3589 24.5627 88.4228C24.6268 88.4867 26.3579 93.626 28.4095 99.8436ZM62.6972 94.4918L63.7609 100.411L60.6826 105.437C57.2913 110.974 57.6281 110.646 54.9656 111.011C54.1105 111.128 53.9034 111.097 53.989 110.865C54.049 110.703 55.7296 105.621 57.7242 99.5719C59.7185 93.5223 61.4141 88.5729 61.492 88.5729C61.5697 88.5729 62.112 91.2363 62.6972 94.4918ZM41.9545 92.7684L42.5094 92.9155L42.5616 96.3266C42.5964 98.5978 42.5423 99.6176 42.3995 99.3782C42.1505 98.9606 39.7346 92.6931 39.7346 92.4647C39.7346 92.317 40.801 92.4629 41.9545 92.7684ZM45.7456 94.0448C44.892 96.3392 43.7137 99.2736 43.6 99.3877C43.5497 99.4383 43.5084 97.9876 43.5084 96.1636V92.8476L44.5628 92.6199C46.521 92.1972 46.4601 92.124 45.7456 94.0448ZM42.5951 114.851L42.6204 120.237L40.1446 117.946C37.2672 115.284 33.8519 111.837 33.8519 111.596C33.8519 111.504 35.7499 109.725 38.0697 107.643L42.2874 103.858L42.4286 106.662C42.5063 108.204 42.5811 111.889 42.5951 114.851ZM47.9483 107.707C50.0852 109.671 51.9612 111.431 52.117 111.618C52.3563 111.905 52.2866 112.051 51.6728 112.554C51.2724 112.881 49.4465 114.611 47.6151 116.398C45.7837 118.184 44.1106 119.78 43.8968 119.944C43.5286 120.227 43.5084 119.817 43.5084 112.022C43.5084 105.504 43.5659 103.836 43.7859 103.969C43.9386 104.062 45.8117 105.744 47.9483 107.707Z" fill="white"/>
</svg>
