<svg width="1332" height="71" viewBox="0 0 1332 71" fill="none" xmlns="http://www.w3.org/2000/svg">
<path d="M0.900146 22.0439H6.33603L12.1117 38.991C13.8953 33.3717 18.2271 21.152 19.8408 18.1193C22.304 13.392 26.6357 11.2513 31.9867 12.0541L31.3921 17.4058C28.0796 16.8706 25.7863 17.941 24.4274 20.7952C21.7094 25.8793 14.9146 48.0888 14.8296 48.2672L14.4899 48.5348L10.0732 48.624L0.900146 22.0439Z" fill="#9FAAAB"/>
<path d="M35.0444 26.3248H31.647V21.5083H43.7928V26.3248H40.1406V43.0935H35.0444V26.3248ZM31.647 43.8962H43.7928V48.7128H31.647V43.8962Z" fill="#9FAAAB"/>
<path d="M54.1562 22.0435H59.4223L67.5761 37.7418V22.0435H72.6723V48.5344L72.3325 48.7128H67.4063L59.2524 32.9253V48.7128H54.1562V22.0435Z" fill="#9FAAAB"/>
<path d="M98.7481 32.7463H79.043V37.9196H98.7481V32.7463Z" fill="#9FAAAB"/>
<path fill-rule="evenodd" clip-rule="evenodd" d="M114.4 10.5C113.848 10.5 113.4 10.9477 113.4 11.5V59.5C113.4 60.0523 113.848 60.5 114.4 60.5H229.067C229.619 60.5 230.067 60.0523 230.067 59.5V11.5C230.067 10.9477 229.619 10.5 229.067 10.5H114.4ZM207.433 39.2697V43.3727H218.9V48.7244H202.252V39.2697H199.279V33.918H215.078V39.2697H207.433ZM207.433 26.9622H218.135V21.6105H202.252V32.9383H207.433V26.9622ZM121.733 27.407H129.378V48.7246H134.559V27.407H142.288V21.9661H121.733V27.407ZM182.886 36.328V41.0553H188.662C187.303 42.4824 185.604 43.3744 183.566 43.3744C179.404 43.3744 176.006 39.8066 176.006 35.436C176.006 31.0655 179.404 27.4977 183.566 27.4977C186.453 27.4977 189.086 29.1924 190.361 31.9574L194.862 29.3708C192.654 24.911 188.322 22.146 183.566 22.146C176.516 22.146 170.91 28.1221 170.91 35.436C170.91 42.75 176.601 48.8153 183.566 48.8153C188.407 48.8153 192.909 46.2286 194.947 41.1445V36.328H182.886ZM153.924 22.4128L158.68 22.3236L167.768 48.9037H165.73H163.946H162.332H150.526H147.893H144.921C147.893 42.1249 153.924 22.4128 153.924 22.4128ZM156.472 31.9566C155.538 34.9001 153.924 39.7166 152.31 44.0872H160.634L156.472 31.9566Z" fill="#9FAAAB"/>
<path d="M362.411 17.8712H355.965L348.191 38.0464L340.418 17.8712H334.067L348.191 54.5L362.411 17.8712Z" fill="#9FAAAB"/>
<path d="M376.726 17.8712H370.754V54.5H376.726V17.8712Z" fill="#9FAAAB"/>
<path d="M398.15 45.0979C405.355 45.0979 411.327 39.0258 411.327 31.4846C411.327 24.0413 405.45 17.8712 398.15 17.8712C390.851 17.8712 384.973 24.0413 384.973 31.4846C384.973 39.0258 390.946 45.0979 398.15 45.0979ZM398.15 23.9434C402.226 23.9434 405.45 27.2732 405.45 31.4846C405.45 35.6959 402.226 39.0258 398.15 39.0258C394.074 39.0258 390.851 35.6959 390.851 31.4846C390.851 27.2732 394.074 23.9434 398.15 23.9434Z" fill="#9FAAAB"/>
<path d="M409.715 48.4276H386.3V54.4997H409.715V48.4276Z" fill="#9FAAAB"/>
<path d="M438.628 48.4278H425.546V17.8712H419.668V54.5H438.628V48.4278Z" fill="#9FAAAB"/>
<path d="M471.047 48.4278H453.32V39.2217H468.014V33.1495H453.32V24.0413H471.047V17.8712H447.348V54.5H471.047V48.4278Z" fill="#9FAAAB"/>
<path d="M484.129 54.5H490.007V24.0413H495.884V17.8712H478.157V24.0413H484.129V54.5Z" fill="#9FAAAB"/>
<path d="M398.15 46.6648C406.208 46.6648 412.749 39.9071 412.749 31.5824C412.749 23.2577 406.208 16.4999 398.15 16.4999C390.092 16.4999 383.551 23.2577 383.551 31.5824C383.456 39.9071 390.092 46.6648 398.15 46.6648ZM398.15 17.2834C405.828 17.2834 411.99 23.6494 411.99 31.5824C411.99 39.4174 405.828 45.8813 398.15 45.8813C390.471 45.8813 384.309 39.5154 384.309 31.5824C384.309 23.6494 390.471 17.2834 398.15 17.2834Z" fill="#9FAAAB"/>
<path d="M623.043 38.7564C622.867 41.1874 621.967 43.1012 620.343 44.4977C618.729 45.8943 616.598 46.5925 613.949 46.5925C611.053 46.5925 608.772 45.6201 607.106 43.6753C605.451 41.7202 604.624 39.0409 604.624 35.6374V34.2564C604.624 32.084 605.006 30.1702 605.772 28.515C606.537 26.8599 607.629 25.5927 609.046 24.7133C610.474 23.8237 612.129 23.3789 614.012 23.3789C616.618 23.3789 618.718 24.0771 620.312 25.4737C621.905 26.8702 622.825 28.8306 623.074 31.3547H618.418C618.305 29.8961 617.896 28.8409 617.193 28.1892C616.499 27.5271 615.439 27.1961 614.012 27.1961C612.46 27.1961 611.296 27.7547 610.52 28.8719C609.755 29.9788 609.362 31.7012 609.341 34.0392V35.746C609.341 38.1874 609.708 39.9719 610.443 41.0995C611.187 42.227 612.356 42.7908 613.949 42.7908C615.387 42.7908 616.458 42.465 617.162 41.8133C617.875 41.1512 618.284 40.1322 618.387 38.7564H623.043Z" fill="#9FAAAB"/>
<path d="M646.048 36.4909H637.11V42.5426H647.6V46.2822H632.455V23.6892H647.569V27.4599H637.11V32.8443H646.048V36.4909Z" fill="#9FAAAB"/>
<path d="M669.442 41.6271H661.28L659.728 46.2822H654.778L663.189 23.6892H667.502L675.959 46.2822H671.009L669.442 41.6271ZM662.537 37.8564H668.185L665.345 29.3995L662.537 37.8564Z" fill="#9FAAAB"/>
<path d="M699.57 27.4599H692.649V46.2822H687.994V27.4599H681.167V23.6892H699.57V27.4599Z" fill="#9FAAAB"/>
<path d="M726.983 46.2822H722.328V36.5995H713.25V46.2822H708.595V23.6892H713.25V32.8443H722.328V23.6892H726.983V46.2822Z" fill="#9FAAAB"/>
<path d="M751.013 36.4909H742.075V42.5426H752.564V46.2822H737.42V23.6892H752.533V27.4599H742.075V32.8443H751.013V36.4909Z" fill="#9FAAAB"/>
<path d="M773.367 40.3546C773.367 39.4753 773.056 38.8029 772.436 38.3374C771.815 37.8616 770.698 37.365 769.084 36.8478C767.47 36.3202 766.192 35.8029 765.251 35.296C762.686 33.9098 761.403 32.0426 761.403 29.6944C761.403 28.4737 761.744 27.3875 762.427 26.4358C763.12 25.4737 764.108 24.7237 765.391 24.1858C766.684 23.6478 768.132 23.3789 769.736 23.3789C771.349 23.3789 772.787 23.6737 774.049 24.2633C775.311 24.8427 776.289 25.6651 776.982 26.7306C777.686 27.7961 778.037 29.0064 778.037 30.3616H773.382C773.382 29.3271 773.056 28.5254 772.404 27.9564C771.753 27.3771 770.837 27.0875 769.658 27.0875C768.52 27.0875 767.636 27.3306 767.005 27.8168C766.374 28.2926 766.058 28.9237 766.058 29.7099C766.058 30.4443 766.425 31.0599 767.16 31.5564C767.905 32.053 768.996 32.5185 770.434 32.953C773.082 33.7495 775.011 34.7374 776.222 35.9167C777.432 37.096 778.037 38.565 778.037 40.3236C778.037 42.2788 777.298 43.815 775.818 44.9322C774.339 46.0391 772.348 46.5925 769.844 46.5925C768.106 46.5925 766.523 46.277 765.096 45.646C763.668 45.0046 762.577 44.1305 761.822 43.0236C761.077 41.9167 760.705 40.634 760.705 39.1753H765.375C765.375 41.6684 766.865 42.915 769.844 42.915C770.951 42.915 771.815 42.6926 772.436 42.2477C773.056 41.7926 773.367 41.1615 773.367 40.3546Z" fill="#9FAAAB"/>
<path d="M599.884 11.0981H784.884V13.3681H599.884V11.0981Z" fill="#9FAAAB"/>
<path d="M599.884 57.6319H784.884V59.9018H599.884V57.6319Z" fill="#9FAAAB"/>
<path d="M906.485 16.9586C896.781 16.9586 888.884 25.2618 888.884 35.4649C888.884 45.668 896.781 53.9712 906.485 53.9712C916.19 53.9712 924.087 45.668 924.087 35.4649C924.087 25.2618 916.19 16.9586 906.485 16.9586ZM916.056 43.9088C915.52 44.4014 914.851 44.894 914.182 45.3161C913.513 45.8087 912.709 46.1606 911.906 46.5828C911.103 46.9346 910.166 47.216 909.229 47.4271C908.292 47.6382 907.289 47.779 906.218 47.779C904.678 47.779 903.273 47.5679 902.135 47.216C900.998 46.8642 900.061 46.3716 899.324 45.668C898.588 45.0347 898.053 44.2607 897.718 43.3459C897.384 42.4311 897.183 41.5164 897.183 40.4609C897.183 38.9832 897.517 37.787 898.12 36.8018C898.722 35.8167 899.592 34.9723 900.596 34.2687C900.061 33.7058 899.659 33.0021 899.324 32.1577C898.99 31.3837 898.789 30.5393 898.789 29.5541C898.789 28.569 898.99 27.5839 899.324 26.7395C899.659 25.8951 900.194 25.1211 900.797 24.4878C901.466 23.8545 902.202 23.3619 903.072 23.0101C903.942 22.6582 904.879 22.5175 905.883 22.5175C907.021 22.5175 908.025 22.7286 908.895 23.0804C909.832 23.4323 910.568 23.9248 911.237 24.5581C911.906 25.1914 912.375 25.9654 912.709 26.8098C913.044 27.6542 913.245 28.6394 913.245 29.6949C913.245 30.8911 912.91 31.9466 912.308 32.8614C911.706 33.7761 910.969 34.5501 910.099 35.2538L913.178 37.9981C913.446 37.7166 913.713 37.4352 913.981 37.0833C914.249 36.8019 914.583 36.3796 914.985 35.8167L919.536 39.898C919.067 40.6016 918.532 41.3053 917.93 41.9386C917.327 42.7126 916.725 43.3459 916.056 43.9088ZM914.316 40.6016C913.914 41.0238 913.446 41.3757 913.044 41.7275C912.241 42.2904 911.237 42.8533 910.099 43.3459C908.962 43.8385 907.623 44.0496 906.084 44.0496C905.548 44.0496 905.013 43.9792 904.411 43.8385C903.875 43.6977 903.34 43.4866 902.871 43.2052C902.403 42.9237 902.001 42.5015 901.734 42.009C901.399 41.5164 901.265 40.8831 901.265 40.1794C901.265 39.1239 901.533 38.3499 902.135 37.7166C902.671 37.0833 903.474 36.5204 904.545 35.9574L905.548 35.3945L910.903 40.0387L911.572 39.5462L906.352 34.9723C907.623 34.2687 908.627 33.4946 909.363 32.6502C910.099 31.8058 910.501 30.8207 910.501 29.6245C910.501 28.9912 910.367 28.4283 910.166 27.9357C909.899 27.4432 909.631 26.9506 909.162 26.5987C908.761 26.2469 908.292 25.9654 907.69 25.7543C907.155 25.5432 906.552 25.4729 905.883 25.4729C905.348 25.4729 904.812 25.5432 904.277 25.7543C903.741 25.9654 903.273 26.2469 902.871 26.5987C902.47 26.9506 902.135 27.4432 901.868 27.9357C901.6 28.4283 901.533 29.0616 901.533 29.6949C901.533 30.6096 901.734 31.3837 902.202 32.017C902.671 32.7206 903.273 33.3539 904.076 34.0575L904.946 34.8316L904.143 35.2538C903.675 35.5352 903.139 35.8167 902.738 36.0982C902.269 36.45 901.934 36.8018 901.6 37.1537C901.265 37.5759 900.998 37.9981 900.864 38.4907C900.663 38.9832 900.596 39.5461 900.596 40.1091C900.596 40.8831 900.73 41.5868 901.064 42.2201C901.399 42.8534 901.801 43.2755 902.336 43.6977C902.871 44.0496 903.474 44.4014 904.143 44.5421C904.812 44.7532 905.548 44.8236 906.285 44.8236C907.824 44.8236 909.229 44.5421 910.501 44.0496C911.706 43.557 912.776 42.9237 913.646 42.2904C914.65 41.5164 915.52 40.672 916.323 39.6868L915.654 39.1943C915.119 39.7572 914.717 40.1794 914.316 40.6016ZM904.545 33.4946C903.608 32.7206 903.072 32.017 902.738 31.454C902.47 30.8911 902.336 30.3282 902.336 29.7652C902.336 28.7801 902.671 27.9357 903.273 27.3024C903.942 26.6691 904.745 26.3173 905.749 26.3173C906.218 26.3173 906.686 26.3877 907.088 26.5284C907.556 26.6691 907.891 26.8802 908.292 27.1617C908.627 27.4431 908.895 27.795 909.096 28.2172C909.296 28.6394 909.43 29.1319 909.43 29.6949C909.43 30.8207 909.096 31.7355 908.426 32.4391C907.757 33.1428 906.82 33.7761 905.548 34.4798L904.545 33.4946ZM906.887 30.6096C907.088 30.3282 907.222 29.9763 907.222 29.5541C907.222 28.6394 906.82 28.2172 905.95 28.2172C905.548 28.2172 905.281 28.3579 905.013 28.569C904.745 28.8505 904.678 29.1319 904.678 29.5541C904.678 29.906 904.745 30.1874 904.879 30.5392C905.013 30.8207 905.348 31.1725 905.749 31.5947C906.285 31.2429 906.619 30.8911 906.887 30.6096ZM904.21 40.0387C904.21 40.6016 904.411 41.0238 904.879 41.3053C905.281 41.5868 905.816 41.7275 906.352 41.7275C906.686 41.7275 907.021 41.7275 907.422 41.6571C907.757 41.5868 908.092 41.5164 908.426 41.3757L905.147 38.4203C904.478 38.8425 904.21 39.4054 904.21 40.0387Z" fill="#9FAAAB"/>
<path d="M907.221 0H905.749V18.6471H907.221V0Z" fill="#9FAAAB"/>
<path d="M907.221 50.3124H905.749V71H907.221V50.3124Z" fill="#9FAAAB"/>
<path d="M951.459 32.2596C948.844 32.2596 946.478 31.6868 944.361 30.5413C942.27 29.3708 940.626 27.777 939.431 25.7599C938.235 23.7178 937.638 21.4267 937.638 18.8866C937.638 16.3465 938.235 14.0679 939.431 12.0507C940.626 10.0087 942.282 8.41488 944.399 7.26934C946.516 6.09889 948.881 5.51367 951.496 5.51367C953.538 5.51367 955.406 5.86231 957.099 6.5596C958.793 7.23198 960.237 8.24056 961.432 9.58532L959.004 11.9387C957.037 9.87171 954.584 8.83823 951.646 8.83823C949.703 8.83823 947.947 9.27403 946.379 10.1456C944.81 11.0172 943.577 12.225 942.68 13.769C941.809 15.2881 941.373 16.994 941.373 18.8866C941.373 20.7792 941.809 22.4976 942.68 24.0416C943.577 25.5606 944.81 26.756 946.379 27.6276C947.947 28.4992 949.703 28.935 951.646 28.935C954.559 28.935 957.012 27.8891 959.004 25.7972L961.432 28.1506C960.237 29.4953 958.78 30.5163 957.062 31.2136C955.369 31.9109 953.501 32.2596 951.459 32.2596Z" fill="#9FAAAB"/>
<path d="M968.554 15.4873C969.177 14.3418 970.098 13.4702 971.319 12.8725C972.539 12.2749 974.021 11.976 975.764 11.976V15.45C975.565 15.4251 975.291 15.4126 974.942 15.4126C973 15.4126 971.468 15.9979 970.347 17.1683C969.252 18.3138 968.704 19.9574 968.704 22.0991V31.9607H965.118V12.1628H968.554V15.4873Z" fill="#9FAAAB"/>
<path d="M996.773 22.1738C996.773 22.4478 996.748 22.8088 996.699 23.2571H980.636C980.86 25.0003 981.62 26.4073 982.915 27.4782C984.235 28.5241 985.866 29.0471 987.808 29.0471C990.174 29.0471 992.079 28.2502 993.524 26.6564L995.503 28.9724C994.607 30.0183 993.486 30.8152 992.141 31.3631C990.822 31.9109 989.34 32.1849 987.696 32.1849C985.604 32.1849 983.749 31.7615 982.13 30.9148C980.512 30.0432 979.254 28.8354 978.358 27.2914C977.486 25.7474 977.05 24.0042 977.05 22.0618C977.05 20.1442 977.474 18.4135 978.32 16.8695C979.192 15.3255 980.375 14.1301 981.869 13.2834C983.388 12.4118 985.094 11.976 986.986 11.976C988.879 11.976 990.56 12.4118 992.029 13.2834C993.524 14.1301 994.682 15.3255 995.503 16.8695C996.35 18.4135 996.773 20.1816 996.773 22.1738ZM986.986 15.0017C985.268 15.0017 983.824 15.5247 982.653 16.5706C981.508 17.6166 980.835 18.9862 980.636 20.6796H993.337C993.138 19.0111 992.453 17.6539 991.282 16.608C990.137 15.5372 988.705 15.0017 986.986 15.0017Z" fill="#9FAAAB"/>
<path d="M1007.29 11.976C1010.03 11.976 1012.13 12.6484 1013.57 13.9932C1015.04 15.3379 1015.77 17.3426 1015.77 20.0073V31.9607H1012.37V29.3459C1011.78 30.2673 1010.92 30.9771 1009.8 31.4751C1008.7 31.9483 1007.39 32.1849 1005.88 32.1849C1003.66 32.1849 1001.88 31.6494 1000.53 30.5786C999.214 29.5078 998.554 28.1007 998.554 26.3575C998.554 24.6143 999.189 23.2197 1000.46 22.1738C1001.73 21.103 1003.75 20.5676 1006.51 20.5676H1012.19V19.8578C1012.19 18.3138 1011.74 17.1309 1010.84 16.3091C1009.95 15.4873 1008.63 15.0764 1006.88 15.0764C1005.71 15.0764 1004.57 15.2757 1003.45 15.6741C1002.33 16.0477 1001.38 16.5582 1000.61 17.2057L999.114 14.5161C1000.13 13.6943 1001.36 13.0718 1002.77 12.6484C1004.19 12.2001 1005.7 11.976 1007.29 11.976ZM1006.47 29.4206C1007.84 29.4206 1009.03 29.1218 1010.02 28.5241C1011.02 27.9015 1011.74 27.0299 1012.19 25.9093V23.145H1006.66C1003.62 23.145 1002.1 24.1661 1002.1 26.2081C1002.1 27.2042 1002.49 27.9887 1003.26 28.5615C1004.03 29.1342 1005.1 29.4206 1006.47 29.4206Z" fill="#9FAAAB"/>
<path d="M1032.42 30.8027C1031.9 31.251 1031.25 31.5996 1030.48 31.8487C1029.71 32.0728 1028.91 32.1849 1028.09 32.1849C1026.1 32.1849 1024.55 31.6494 1023.46 30.5786C1022.36 29.5078 1021.81 27.9762 1021.81 25.984V15.1138H1018.45V12.1628H1021.81V7.82966H1025.4V12.1628H1031.08V15.1138H1025.4V25.8346C1025.4 26.9054 1025.66 27.7272 1026.18 28.3C1026.73 28.8727 1027.5 29.1591 1028.5 29.1591C1029.59 29.1591 1030.53 28.8478 1031.3 28.2253L1032.42 30.8027Z" fill="#9FAAAB"/>
<path d="M1052.87 22.1738C1052.87 22.4478 1052.85 22.8088 1052.8 23.2571H1036.74C1036.96 25.0003 1037.72 26.4073 1039.01 27.4782C1040.33 28.5241 1041.96 29.0471 1043.91 29.0471C1046.27 29.0471 1048.18 28.2502 1049.62 26.6564L1051.6 28.9724C1050.71 30.0183 1049.59 30.8152 1048.24 31.3631C1046.92 31.9109 1045.44 32.1849 1043.8 32.1849C1041.7 32.1849 1039.85 31.7615 1038.23 30.9148C1036.61 30.0432 1035.35 28.8354 1034.46 27.2914C1033.58 25.7474 1033.15 24.0042 1033.15 22.0618C1033.15 20.1442 1033.57 18.4135 1034.42 16.8695C1035.29 15.3255 1036.47 14.1301 1037.97 13.2834C1039.49 12.4118 1041.19 11.976 1043.09 11.976C1044.98 11.976 1046.66 12.4118 1048.13 13.2834C1049.62 14.1301 1050.78 15.3255 1051.6 16.8695C1052.45 18.4135 1052.87 20.1816 1052.87 22.1738ZM1043.09 15.0017C1041.37 15.0017 1039.92 15.5247 1038.75 16.5706C1037.61 17.6166 1036.93 18.9862 1036.74 20.6796H1049.44C1049.24 19.0111 1048.55 17.6539 1047.38 16.608C1046.24 15.5372 1044.8 15.0017 1043.09 15.0017Z" fill="#9FAAAB"/>
<path d="M1060.17 15.4873C1060.79 14.3418 1061.71 13.4702 1062.93 12.8725C1064.15 12.2749 1065.63 11.976 1067.38 11.976V15.45C1067.18 15.4251 1066.9 15.4126 1066.56 15.4126C1064.61 15.4126 1063.08 15.9979 1061.96 17.1683C1060.87 18.3138 1060.32 19.9574 1060.32 22.0991V31.9607H1056.73V12.1628H1060.17V15.4873Z" fill="#9FAAAB"/>
<path d="M943.502 44.2824V53.3969H956.614V56.6094H943.502V67.1808H939.767V41.0326H958.22V44.2824H943.502Z" fill="#9FAAAB"/>
<path d="M968.351 47.1961C971.09 47.1961 973.182 47.8684 974.626 49.2132C976.096 50.558 976.83 52.5627 976.83 55.2273V67.1808H973.431V64.5659C972.833 65.4874 971.974 66.1971 970.854 66.6952C969.758 67.1683 968.451 67.4049 966.931 67.4049C964.715 67.4049 962.935 66.8695 961.59 65.7986C960.27 64.7278 959.61 63.3208 959.61 61.5776C959.61 59.8344 960.245 58.4398 961.515 57.3939C962.785 56.323 964.802 55.7876 967.566 55.7876H973.244V55.0779C973.244 53.5339 972.796 52.351 971.9 51.5292C971.003 50.7074 969.683 50.2965 967.94 50.2965C966.77 50.2965 965.624 50.4957 964.503 50.8942C963.383 51.2677 962.436 51.7782 961.664 52.4257L960.17 49.7362C961.191 48.9144 962.412 48.2918 963.831 47.8684C965.25 47.4202 966.757 47.1961 968.351 47.1961ZM967.529 64.6407C968.899 64.6407 970.082 64.3418 971.078 63.7441C972.074 63.1216 972.796 62.25 973.244 61.1293V58.3651H967.716C964.678 58.3651 963.159 59.3861 963.159 61.4282C963.159 62.4243 963.545 63.2087 964.317 63.7815C965.089 64.3543 966.159 64.6407 967.529 64.6407Z" fill="#9FAAAB"/>
<path d="M999.501 47.3828L990.834 67.1808H987.174L978.507 47.3828H982.243L989.041 63.2585L995.989 47.3828H999.501Z" fill="#9FAAAB"/>
<path d="M1171.38 11.6052L1171.38 59.3947" stroke="#9FAAAB" stroke-width="3"/>
<path d="M1192.7 29.0482H1198.42V31.2112H1190.01V18.1437H1192.7V29.0482Z" fill="#9FAAAB"/>
<path d="M1214.88 28.5187H1210.16L1209.26 31.2112H1206.4L1211.27 18.1437H1213.76L1218.65 31.2112H1215.79L1214.88 28.5187ZM1210.89 26.3378H1214.16L1212.51 21.4465L1210.89 26.3378Z" fill="#9FAAAB"/>
<path d="M1231.35 27.9712L1234.31 18.1437H1237.31L1232.76 31.2112H1229.95L1225.42 18.1437H1228.41L1231.35 27.9712Z" fill="#9FAAAB"/>
<path d="M1253.76 25.548H1248.6V29.0482H1254.66V31.2112H1245.9V18.1437H1254.64V20.3246H1248.6V23.4389H1253.76V25.548Z" fill="#9FAAAB"/>
<path d="M1274.22 31.2112H1271.53L1266.29 22.6132V31.2112H1263.59V18.1437H1266.29L1271.54 26.7596V18.1437H1274.22V31.2112Z" fill="#9FAAAB"/>
<path d="M1283.92 31.2112V18.1437H1287.94C1289.09 18.1437 1290.12 18.404 1291.02 18.9246C1291.93 19.4391 1292.64 20.1751 1293.15 21.1324C1293.66 22.0837 1293.91 23.1667 1293.91 24.3813V24.9826C1293.91 26.1972 1293.66 27.2772 1293.16 28.2225C1292.66 29.1679 1291.96 29.9008 1291.05 30.4214C1290.14 30.9419 1289.11 31.2052 1287.97 31.2112H1283.92ZM1286.62 20.3246V29.0482H1287.92C1288.97 29.0482 1289.78 28.7042 1290.33 28.0161C1290.89 27.328 1291.17 26.3438 1291.18 25.0634V24.3723C1291.18 23.044 1290.91 22.0388 1290.36 21.3567C1289.81 20.6687 1289 20.3246 1287.94 20.3246H1286.62Z" fill="#9FAAAB"/>
<path d="M1311.09 25.548H1305.92V29.0482H1311.99V31.2112H1303.23V18.1437H1311.97V20.3246H1305.92V23.4389H1311.09V25.548Z" fill="#9FAAAB"/>
<path d="M1325.76 26.4276H1323.61V31.2112H1320.92V18.1437H1325.78C1327.32 18.1437 1328.51 18.4878 1329.35 19.1759C1330.19 19.8639 1330.61 20.8362 1330.61 22.0927C1330.61 22.9842 1330.41 23.7291 1330.02 24.3274C1329.64 24.9198 1329.06 25.3925 1328.27 25.7455L1331.1 31.0855V31.2112H1328.21L1325.76 26.4276ZM1323.61 24.2467H1325.79C1326.46 24.2467 1326.99 24.0761 1327.36 23.7351C1327.73 23.3881 1327.91 22.9124 1327.91 22.3081C1327.91 21.6918 1327.74 21.2072 1327.38 20.8542C1327.04 20.5011 1326.5 20.3246 1325.78 20.3246H1323.61V24.2467Z" fill="#9FAAAB"/>
<path d="M1197.39 51.8008H1192.67L1191.77 54.4932H1188.91L1193.77 41.4258H1196.27L1201.16 54.4932H1198.29L1197.39 51.8008ZM1193.39 49.6199H1196.66L1195.02 44.7286L1193.39 49.6199Z" fill="#9FAAAB"/>
<path d="M1219.87 52.8419C1219.39 53.4222 1218.7 53.874 1217.82 54.1971C1216.93 54.5142 1215.95 54.6727 1214.87 54.6727C1213.74 54.6727 1212.75 54.4274 1211.89 53.9368C1211.04 53.4402 1210.39 52.7222 1209.92 51.7828C1209.46 50.8435 1209.22 49.7395 1209.21 48.4711V47.5826C1209.21 46.2782 1209.43 45.1504 1209.87 44.199C1210.31 43.2417 1210.94 42.5118 1211.77 42.0092C1212.6 41.5006 1213.57 41.2463 1214.68 41.2463C1216.23 41.2463 1217.45 41.6173 1218.32 42.3592C1219.19 43.0951 1219.71 44.1691 1219.87 45.5812H1217.25C1217.13 44.8333 1216.87 44.2858 1216.45 43.9388C1216.05 43.5917 1215.48 43.4182 1214.77 43.4182C1213.85 43.4182 1213.15 43.7623 1212.67 44.4503C1212.2 45.1384 1211.95 46.1616 1211.95 47.5198V48.3544C1211.95 49.7246 1212.21 50.7597 1212.73 51.4597C1213.25 52.1598 1214.01 52.5098 1215.02 52.5098C1216.03 52.5098 1216.75 52.2944 1217.18 51.8636V49.6109H1214.73V47.6275H1219.87V52.8419Z" fill="#9FAAAB"/>
<path d="M1237.28 48.8301H1232.11V52.3303H1238.17V54.4932H1229.41V41.4258H1238.16V43.6067H1232.11V46.721H1237.28V48.8301Z" fill="#9FAAAB"/>
<path d="M1257.73 54.4932H1255.04L1249.8 45.8953V54.4932H1247.11V41.4258H1249.8L1255.05 50.0417V41.4258H1257.73V54.4932Z" fill="#9FAAAB"/>
<path d="M1277.69 50.1404C1277.59 51.5465 1277.07 52.6534 1276.13 53.4611C1275.2 54.2689 1273.97 54.6727 1272.43 54.6727C1270.76 54.6727 1269.44 54.1103 1268.48 52.9855C1267.52 51.8546 1267.04 50.305 1267.04 48.3365V47.5377C1267.04 46.2812 1267.26 45.1743 1267.7 44.217C1268.15 43.2597 1268.78 42.5267 1269.6 42.0181C1270.42 41.5036 1271.38 41.2463 1272.47 41.2463C1273.98 41.2463 1275.19 41.6502 1276.11 42.4579C1277.04 43.2657 1277.57 44.3995 1277.71 45.8594H1275.02C1274.95 45.0158 1274.72 44.4055 1274.31 44.0285C1273.91 43.6456 1273.3 43.4541 1272.47 43.4541C1271.57 43.4541 1270.9 43.7772 1270.45 44.4234C1270.01 45.0636 1269.78 46.0598 1269.77 47.4121V48.3993C1269.77 49.8113 1269.98 50.8435 1270.41 51.4956C1270.84 52.1478 1271.51 52.4739 1272.43 52.4739C1273.27 52.4739 1273.89 52.2854 1274.29 51.9085C1274.71 51.5256 1274.94 50.9362 1275 50.1404H1277.69Z" fill="#9FAAAB"/>
<path d="M1291.32 47.3133L1294.04 41.4258H1296.98L1292.69 49.7545V54.4932H1289.96V49.7545L1285.67 41.4258H1288.62L1291.32 47.3133Z" fill="#9FAAAB"/>
</svg>
